# xmcd
#
# Track frame offsets:
#  150
#  15119
#  25786
#  38338
#  53917
#  69729
#  78410
#  93148
#  109849
#  120536
#  135792
#  148796
#
# Disc length: 2142 seconds
#
# Revision: 1
# Processed by: cddbd v1.5.1PL0 Copyright (c) Steve Scherf et al.
# Submitted via: Collectorz.com_Music_Collector 6.9
#
DISCID=88085c0c
DTITLE=Mike Bella - Lost In The Shuffle
DYEAR=2005
DGENRE=
TTITLE0=I Won't Live That Long
TTITLE1=Love Lives On
TTITLE2=Give Me Flowers
TTITLE3=White Line Fever
TTITLE4=Might As Well Stayed At Home
TTITLE5=Loves Gonna Live Here
TTITLE6=What We Don't Have
TTITLE7=Wild Side Of Me
TTITLE8=Over And Over
TTITLE9=Lost In The Shuffle
TTITLE10=When Jesus Calls All His Children In
TTITLE11=Hot Country Nights
EXTD=
EXTT0=
EXTT1=
EXTT2=
EXTT3=
EXTT4=
EXTT5=
EXTT6=
EXTT7=
EXTT8=
EXTT9=
EXTT10=
EXTT11=
PLAYORDER=
